<?xml version="1.0" standalone="yes"?>

<svg version="1.1" viewBox="0.0 0.0 960.0 720.0" fill="none" stroke="none" stroke-linecap="square" stroke-miterlimit="10" xmlns="http://www.w3.org/2000/svg" xmlns:xlink="http://www.w3.org/1999/xlink"><clipPath id="p.0"><path d="m0 0l960.0 0l0 720.0l-960.0 0l0 -720.0z" clip-rule="nonzero"></path></clipPath><g clip-path="url(#p.0)"><path fill="#000000" fill-opacity="0.0" d="m0 0l960.0 0l0 720.0l-960.0 0z" fill-rule="nonzero"></path><path fill="#d9ead3" d="m592.556 88.32723l858.5205 -129.02774c34.081177 -5.122101 69.48767 3.3832397 98.430176 23.644938c28.942505 20.2617 49.050415 50.620026 55.900146 84.3965l25.826782 127.35434c9.765625E-4 0.0050811768 -0.002319336 0.00982666 -0.007446289 0.010604858l-1115.5201 167.64294l0 0c-0.005126953 7.6293945E-4 -0.010131836 -0.002746582 -0.011169434 -0.007843018l-25.815613 -127.34651l0 0c-14.263733 -70.335846 31.706238 -136.001 102.67676 -146.66724z" fill-rule="nonzero"></path><path fill="#000000" d="m625.7659 169.70609l-5.699707 -28.105667l19.098022 -2.8702545l0.67474365 3.327301l-15.343262 2.305954l1.7630615 8.693893l13.288269 -1.9971008l0.67163086 3.311966l-13.288269 1.9971008l2.59021 12.772522l-3.7546997 0.5642853zm36.971497 -5.556473l-0.6063843 -2.9899597q-1.6953125 3.809906 -5.80542 4.4276123q-1.8232422 0.27401733 -3.5392456 -0.17910767q-1.7159424 -0.453125 -2.6845093 -1.3819885q-0.9685669 -0.9288635 -1.5854492 -2.400406q-0.42156982 -0.9794769 -0.86932373 -3.1874542l-2.559082 -12.619186l3.4765625 -0.52249146l2.291687 11.300537q0.5472412 2.6986237 0.9532471 3.6014404q0.6012573 1.3158875 1.8105469 1.9399567q1.2216187 0.60643005 2.7976685 0.36956787q1.5606079 -0.23454285 2.758606 -1.2362213q1.213501 -1.0039978 1.5084839 -2.4545746q0.29492188 -1.4505768 -0.23364258 -4.057205l-2.2139893 -10.917206l3.4765625 -0.5225067l4.1293945 20.362427l-3.105713 0.46676636zm15.517883 -5.5081024l1.1256104 2.9593353q-1.4025879 0.54260254 -2.5614624 0.7167816q-1.9005127 0.28562927 -3.0725098 -0.15444946q-1.1564941 -0.44241333 -1.7850342 -1.3433838q-0.61309814 -0.9032898 -1.2443237 -4.015915l-2.3756714 -11.714523l-2.5494385 0.38316345l-0.54418945 -2.6833038l2.5494995 -0.38316345l-1.0198975 -5.0292664l3.0413208 -2.5901642l1.4396973 7.0992584l3.4920654 -0.52482605l0.5441284 2.6833038l-3.4920044 0.52482605l2.4160156 11.913849q0.29852295 1.4719849 0.5710449 1.8734436q0.26934814 0.38613892 0.7208252 0.5710907q0.46697998 0.18263245 1.239502 0.06651306q0.5871582 -0.08824158 1.5048218 -0.35256958zm17.471008 0.5501709l-0.6063843 -2.9899597q-1.6953125 3.809906 -5.80542 4.4276123q-1.8232422 0.27401733 -3.5392456 -0.17910767q-1.7159424 -0.453125 -2.6845093 -1.3819885q-0.9685669 -0.9288635 -1.5854492 -2.400406q-0.42156982 -0.9794769 -0.86932373 -3.1874542l-2.559082 -12.619171l3.4765625 -0.5225067l2.291687 11.300537q0.5472412 2.698639 0.9532471 3.6014404q0.6012573 1.3158875 1.8105469 1.9399719q1.2216187 0.6064148 2.7976685 0.3695526q1.5606079 -0.23454285 2.758606 -1.2362213q1.213501 -1.0039978 1.5084839 -2.4545746q0.29492188 -1.4505768 -0.23370361 -4.057205l-2.2139282 -10.917206l3.4765625 -0.52249146l4.1293945 20.362411l-3.105713 0.46676636zm8.509888 -1.2789459l-4.1293945 -20.362427l3.1366577 -0.4714203l0.6281128 3.0973053q0.74823 -2.3561249 1.6281128 -3.1993866q0.8798218 -0.84324646 2.085083 -1.0243835q1.7614136 -0.26474 3.8117065 0.5805664l-0.5553589 3.3857574q-1.4193726 -0.5608978 -2.7018433 -0.3681488q-1.1433716 0.17184448 -1.9151001 0.99884033q-0.7593994 0.80934143 -0.9031372 2.063385q-0.21398926 1.9282227 0.23065186 4.120865l2.1610718 10.65654l-3.4765625 0.5225067zm25.933289 -10.660141l3.6748657 -0.09410095q-0.2154541 3.2556915 -2.1663818 5.3343506q-1.9385376 2.0610046 -5.5233154 2.5997467q-4.496338 0.675766 -7.6951294 -1.6717682q-3.1864624 -2.3651886 -4.1939697 -7.33313q-1.041626 -5.136612 1.0407715 -8.372665q2.0978394 -3.2383728 6.346985 -3.8769836q4.1101074 -0.6177063 7.2872925 1.7804718q3.1741333 2.382843 4.1971436 7.4274597q0.062194824 0.30665588 0.15570068 0.92463684l-15.296997 2.2989807q0.87872314 3.312439 2.9577026 4.848648q2.0758057 1.5208893 4.656189 1.1330719q1.9005127 -0.28562927 3.0426636 -1.484314q1.1576538 -1.201004 1.5164795 -3.5144043zm-12.547424 -3.849823l11.449585 -1.7207642q-0.7542114 -2.5411224 -2.0969849 -3.666565q-2.0575562 -1.7448273 -4.71521 -1.3454132q-2.3949585 0.35995483 -3.7094116 2.20076q-1.2990723 1.8384705 -0.9279785 4.5319824zm33.269836 7.4980316l-5.699646 -28.105667l10.676941 -1.6046524q2.8121948 -0.42263794 4.3669434 -0.37190247q2.154358 0.023834229 3.7594604 0.7938309q1.6019897 0.7546692 2.8062744 2.3749313q1.2166748 1.6026001 1.6395264 3.6879044q0.72766113 3.587967 -1.0709229 6.417938q-1.783081 2.8276672 -7.793701 3.7310028l-7.262146 1.0914459l2.3165283 11.423187l-3.7392578 0.5619812zm0.7510376 -15.297134l7.3240356 -1.1007233q3.6311035 -0.5457306 4.874817 -2.1072845q1.2560425 -1.5792236 0.7616577 -4.0171967q-0.35760498 -1.7633057 -1.5087891 -2.8859406q-1.151123 -1.1226273 -2.6998901 -1.3006744q-0.9923096 -0.10367584 -3.541809 0.2794876l-7.246704 1.089119l2.0366821 10.043213zm25.13794 11.406265l-4.1293945 -20.362427l3.1366577 -0.47141266l0.6281128 3.0972977q0.74816895 -2.3561172 1.6280518 -3.1993713q0.8798828 -0.8432617 2.085083 -1.0243912q1.7614746 -0.26473236 3.8117676 0.5805664l-0.5553589 3.385765q-1.4193726 -0.5609131 -2.7018433 -0.36816406q-1.1434326 0.17184448 -1.9151001 0.99884033q-0.7593994 0.8093567 -0.9031372 2.0634003q-0.2140503 1.9282227 0.23065186 4.1208496l2.1610718 10.656555l-3.4765625 0.52249146zm9.856079 -11.972809q-1.1473999 -5.6579285 1.4697876 -8.847946q2.1820068 -2.6664047 5.998535 -3.2399902q4.2182007 -0.63396454 7.4664917 1.7219315q3.2451782 2.3405685 4.227722 7.1858444q0.7991333 3.940628 0.066467285 6.373413q-0.7357788 2.41745 -2.7521362 4.0161285q-2.0195312 1.5833435 -4.692627 1.9850922q-4.310974 0.64790344 -7.5252075 -1.6973114q-3.2142334 -2.3452148 -4.259033 -7.497162zm3.569275 -0.5364227q0.79296875 3.909958 2.902954 5.5995026q2.1254883 1.6872101 4.7367554 1.2947693q2.5804443 -0.38781738 3.9006348 -2.5928955q1.3325195 -2.2227325 0.5209961 -6.2246857q-0.7680664 -3.7872772 -2.890442 -5.459175q-2.1254883 -1.6872177 -4.6904297 -1.3017349q-2.611267 0.39245605 -3.9500122 2.5845184q-1.3233643 2.189743 -0.53045654 6.099701zm35.09613 5.2169037l-0.5223999 -2.5759735q-1.3312378 3.3285675 -5.1168213 3.8975067q-2.456787 0.36923218 -4.7823486 -0.65589905q-2.3286743 -1.0404663 -3.9448242 -3.278244q-1.6161499 -2.237793 -2.2504883 -5.365753q-0.61572266 -3.035965 -0.099609375 -5.673195q0.51605225 -2.6372375 2.288208 -4.2624207q1.7845459 -1.6428375 4.3185425 -2.0236816q1.854187 -0.27867126 3.449768 0.28735352q1.611023 0.56370544 2.7745361 1.6686783l-2.0460205 -10.0892105l3.4611206 -0.52017975l5.699646 28.105667l-3.229309 0.48535156zm-13.047607 -8.514786q0.7929077 3.9099426 2.8411255 5.60878q2.0605469 1.6811829 4.3164673 1.3421326q2.2868042 -0.34368896 3.505188 -2.4228516q1.215271 -2.0944977 0.4440918 -5.8971252q-0.84576416 -4.1706085 -2.8630981 -5.874092q-2.0203857 -1.718811 -4.3999023 -1.3611832q-2.317749 0.34832764 -3.4958496 2.4688492q-1.1658325 2.1028671 -0.34802246 6.1354904zm35.18567 5.187622l-0.60632324 -2.9899597q-1.6953735 3.809906 -5.805481 4.4276123q-1.8232422 0.27401733 -3.5392456 -0.17910767q-1.7159424 -0.453125 -2.6845093 -1.3819885q-0.9685669 -0.9288635 -1.5854492 -2.400406q-0.42156982 -0.9794769 -0.86932373 -3.1874542l-2.559082 -12.619179l3.4765625 -0.5224991l2.291687 11.300537q0.54730225 2.698639 0.9533081 3.6014404q0.6011963 1.3158875 1.8104858 1.9399719q1.2216187 0.6064148 2.7976685 0.3695526q1.5606079 -0.23454285 2.758606 -1.2362213q1.213501 -1.0039978 1.5084839 -2.4545746q0.2949829 -1.4505768 -0.23364258 -4.057205l-2.2139893 -10.917206l3.4766235 -0.5224991l4.1293945 20.36242l-3.105774 0.46676636zm20.426025 -10.748871l3.501831 -0.08387756q0.15582275 3.5948944 -1.7576904 5.9365387q-1.901123 2.3239746 -5.2540894 2.827896q-4.2182617 0.63397217 -7.33667 -1.7098389q-3.1029663 -2.3461456 -4.1384277 -7.45208q-0.6685791 -3.2966309 -0.072143555 -5.9301453q0.61187744 -2.6358337 2.6004639 -4.2145386q2.0040894 -1.5810318 4.6463013 -1.9781342q3.3374634 -0.50159454 5.7963867 0.8669052q2.4712524 1.350853 3.6988525 4.342247l-3.2781372 1.029892q-0.8956909 -1.9826508 -2.340149 -2.8241959q-1.4321289 -0.8591995 -3.1626587 -0.59911346q-2.62677 0.3947754 -3.9006958 2.5139008q-1.2584839 2.1167984 -0.43762207 6.164749q0.83026123 4.093956 2.7856445 5.72773q1.9677734 1.6161194 4.517273 1.2329559q2.0549927 -0.30885315 3.1629028 -1.755188q1.1201782 -1.4640045 0.9686279 -4.095703zm14.869751 2.2683487l1.1256104 2.9593277q-1.4025879 0.54260254 -2.5614624 0.71676636q-1.9005127 0.28564453 -3.0725098 -0.15444946q-1.1564941 -0.44239807 -1.7850342 -1.3433685q-0.61309814 -0.9032898 -1.2443237 -4.015915l-2.3756104 -11.714531l-2.5494995 0.38317108l-0.54418945 -2.6833038l2.5494995 -0.38316345l-1.0198975 -5.029274l3.0413208 -2.5901566l1.4396973 7.099251l3.4920654 -0.5248184l0.5441284 2.6833038l-3.4920044 0.5248184l2.4160767 11.9138565q0.2984619 1.4719849 0.5709839 1.8734436q0.26934814 0.38612366 0.7208252 0.5710907q0.46697998 0.18261719 1.239563 0.06651306q0.58709717 -0.08824158 1.5047607 -0.35256195zm1.40625 -3.2924347l3.32135 -1.0521927q0.7071533 1.9951859 2.2444458 2.9017868q1.5495605 0.8889389 3.9290771 0.53131866q2.3950195 -0.35993958 3.3579712 -1.5000916q0.96295166 -1.1401596 0.69866943 -2.4434738q-0.23944092 -1.1806564 -1.3929443 -1.6867142q-0.80407715 -0.3531723 -3.793274 -0.6465454q-4.0247803 -0.3747406 -5.6480103 -0.8418045q-1.6109619 -0.4847107 -2.635376 -1.6105881q-1.0089722 -1.1281967 -1.3106079 -2.615509q-0.2767334 -1.3646545 0.123535156 -2.609848q0.3972168 -1.2605362 1.3233643 -2.189743q0.68218994 -0.71875 1.9888306 -1.3417435q1.3221436 -0.62532043 2.9291382 -0.8668289q2.4104004 -0.36226654 4.373596 0.053703308q1.9786377 0.4136505 3.083374 1.4642563q1.1046753 1.0506134 1.8303223 2.9798203l-3.3060303 0.97088623q-0.552063 -1.544487 -1.8417969 -2.251274q-1.2774048 -0.72444916 -3.3170166 -0.41791534q-2.3949585 0.3599472 -3.2531128 1.3105316q-0.86120605 0.93525696 -0.64660645 1.993248q0.13366699 0.65932465 0.659729 1.1332855q0.54766846 0.5023041 1.5308228 0.71795654q0.55029297 0.12269592 3.239746 0.42952728q3.8919067 0.42630768 5.4718018 0.83667755q1.5922852 0.39271545 2.6537476 1.4656296q1.0738525 1.0552521 1.4313965 2.8185654q0.3482666 1.717308 -0.3605957 3.4038925q-0.69647217 1.6689224 -2.4414673 2.800209q-1.732605 1.113617 -4.1584473 1.4782104q-3.9865112 0.5991211 -6.4205933 -0.725708q-2.4372559 -1.3401489 -3.665039 -4.489525z" fill-rule="nonzero"></path><path fill="#b6d7a8" d="m446.4563 219.32285l858.5205 -129.02774c34.081177 -5.122101 69.48767 3.3832397 98.430176 23.644936c28.942505 20.261696 49.050415 50.620033 55.900146 84.39649l25.826782 127.354355c9.765625E-4 0.005065918 -0.002319336 0.00982666 -0.007446289 0.0105896l-1115.5201 167.64294l0 0c-0.005126953 7.6293945E-4 -0.010131836 -0.002746582 -0.011169434 -0.0078125l-25.815582 -127.34653l0 0c-14.263733 -70.335846 31.706207 -136.00102 102.67676 -146.66724z" fill-rule="nonzero"></path><path fill="#000000" d="m523.0275 280.07507q-1.4179688 -6.991913 1.5654297 -11.516815q2.9833374 -4.5249023 8.963074 -5.423584q3.9246826 -0.58984375 7.453003 0.7917175q3.5283813 1.3815918 5.8409424 4.462738q2.328064 3.0787964 3.1832275 7.29541q0.8674927 4.277954 -0.19439697 7.913666q-1.0465088 3.6333923 -3.8781128 5.844391q-2.831665 2.211029 -6.524536 2.7660522q-4.001953 0.6014404 -7.5427246 -0.8414612q-3.5253296 -1.4452515 -5.819397 -4.5133667q-2.2940674 -3.0681152 -3.0465088 -6.7787476zm3.8753052 -0.5192261q1.0292358 5.075287 4.373474 7.5905457q3.3442993 2.5152893 7.5007324 1.8905945q4.2337036 -0.636261 6.35614 -3.9889526q2.1347656 -3.3703308 1.0339966 -8.798248q-0.69647217 -3.4346313 -2.3900757 -5.8187866q-1.6781616 -2.3864746 -4.217041 -3.442749q-2.5265503 -1.0739136 -5.323242 -0.653595q-3.9865112 0.5991211 -6.3100586 3.7450256q-2.3112793 3.1282349 -1.0239258 9.476166zm30.072998 11.264984l3.4710693 -2.4414062E-4q0.5303955 1.5161133 1.6468506 2.0751343q1.4783936 0.7732544 3.718811 0.43652344q2.4259033 -0.364563 3.543396 -1.5279541q1.1205444 -1.1480408 1.232727 -2.950348q0.04815674 -1.0974731 -0.6514282 -4.468445q-1.7457275 3.0116577 -5.1450806 3.5225525q-4.2182617 0.63397217 -7.1484985 -2.03833q-2.9334106 -2.6876526 -3.791626 -6.919586q-0.5908203 -2.9132996 -0.040771484 -5.539856q0.56555176 -2.6288757 2.303711 -4.26474q1.7504883 -1.6535339 4.4854126 -2.0645447q3.6311035 -0.54574585 6.5705566 2.0145874l-0.4975586 -2.453308l3.2139282 -0.4830017l3.5697021 17.602448q0.9639282 4.7532654 0.37615967 6.879883q-0.56921387 2.1395874 -2.4528809 3.607727q-1.8681641 1.4658203 -4.958496 1.9302673q-3.6774292 0.55267334 -6.2660522 -0.7489319q-2.588623 -1.3016052 -3.1799316 -4.609833zm0.39263916 -12.667786q0.81469727 4.017273 2.7792969 5.6180725q1.9801025 1.5984497 4.406006 1.2338867q2.3949585 -0.35995483 3.6473389 -2.4284363q1.2492676 -2.0838013 0.45635986 -5.9937744q-0.758728 -3.741272 -2.8253784 -5.3741455q-2.0543823 -1.6505127 -4.402954 -1.2975159q-2.317749 0.34832764 -3.560791 2.462799q-1.2461548 2.0991516 -0.49987793 5.779114zm21.851501 7.5866394l-4.1293335 -20.362427l3.1365967 -0.47140503l0.6281128 3.09729q0.74823 -2.3561096 1.6281128 -3.1993713q0.8798828 -0.8432617 2.085083 -1.0243835q1.7614746 -0.26474 3.8117065 0.5805664l-0.55529785 3.3857422q-1.4193726 -0.5609131 -2.7018433 -0.36816406q-1.1434326 0.17184448 -1.9151611 0.99887085q-0.7593384 0.8093262 -0.9030762 2.063385q-0.2140503 1.9282227 0.23059082 4.1208496l2.1611328 10.656555l-3.4766235 0.52249146zm26.089783 -6.512329q-1.6018066 1.9155884 -3.2573853 2.8596191q-1.6400757 0.9417114 -3.6951294 1.2505798q-3.3684082 0.5062256 -5.524414 -0.8603821q-2.140564 -1.3689575 -2.6567383 -3.9142761q-0.3046875 -1.5026245 0.12640381 -2.8314514q0.42797852 -1.3441772 1.3912354 -2.2473755q0.96014404 -0.91851807 2.2730103 -1.5108337q0.9638672 -0.42926025 2.9846191 -0.9857788q4.1156006 -1.1399536 5.953491 -2.1271973q-0.11212158 -0.70996094 -0.1494751 -0.8939514q-0.42907715 -2.1159973 -1.592102 -2.8260193q-1.5651855 -0.9656067 -4.1918945 -0.5708313q-2.456787 0.36923218 -3.4569702 1.4043579q-0.987854 1.0175171 -1.1210938 3.2654114l-3.4926147 0.050872803q0.02508545 -2.2316284 0.82073975 -3.7258606q0.79559326 -1.4942017 2.658142 -2.5167542q1.8625488 -1.0225525 4.5047607 -1.4196472q2.62677 -0.3947754 4.388977 -0.02758789q1.77771 0.36483765 2.7399292 1.1840515q0.9622803 0.81921387 1.557373 2.1834106q0.35028076 0.86376953 0.8167114 3.1637573l0.9328613 4.599945q0.9732666 4.799286 1.4508057 6.0547485q0.48986816 1.2378235 1.3751221 2.305603l-3.6311035 0.54571533q-0.7584839 -0.9920349 -1.2052612 -2.4101257zm-1.8545532 -7.653137q-1.7296143 1.0499878 -5.406372 2.1555786q-2.0855713 0.62945557 -2.9039917 1.1474609q-0.80303955 0.51571655 -1.1327515 1.3237q-0.32977295 0.8079529 -0.14630127 1.712616q0.2798462 1.3799744 1.5171509 2.1420593q1.2372437 0.76208496 3.2614136 0.45788574q2.008667 -0.3019104 3.3920288 -1.4104309q1.3988037 -1.1108398 1.8171997 -2.737976q0.3199463 -1.2489319 -0.14337158 -3.5335693l-0.25500488 -1.2573242zm11.816956 8.747162l-3.585266 -17.679138l-3.074829 0.4621277l-0.5441284 -2.6832886l3.074829 -0.4621277l-0.43841553 -2.1619873q-0.416687 -2.0546417 -0.26342773 -3.1047058q0.23937988 -1.410614 1.338501 -2.4290314q1.0959473 -1.0337372 3.3673706 -1.3751068q1.4678345 -0.22061157 3.3162842 -0.1349945l0.084106445 3.0842438q-1.1220093 -0.03677368 -2.080017 0.10720825q-1.5914917 0.23918152 -2.1190796 1.0137024q-0.512146 0.7721863 -0.13903809 2.612152l0.37939453 1.8706665l4.001892 -0.60147095l0.54418945 2.683319l-4.001953 0.6014404l3.585266 17.679138l-3.4456787 0.5178528zm11.589905 6.332184l-1.0424194 -3.177246q1.2056274 0.13482666 2.055481 0.0071105957q1.1588135 -0.17416382 1.7764282 -0.6620178q0.6175537 -0.4878235 0.9102783 -1.2428284q0.2341919 -0.5724182 0.546875 -2.7208557q0.03363037 -0.30526733 0.13800049 -0.8897705l-11.92627 -19.238037l3.7546997 -0.56430054l6.6558228 11.150269q1.2883301 2.1132202 2.44104 4.4996643q0.120666504 -2.4671936 0.494812 -4.861908l1.9815063 -12.527374l3.4765625 -0.52249146l-3.6020508 21.887817q-0.58917236 3.5330505 -1.0264282 4.910187q-0.5819092 1.8413086 -1.6254272 2.8197632q-1.0280762 0.97613525 -2.6813965 1.2246094q-1.0043335 0.15097046 -2.3275146 -0.09259033zm26.660217 -12.080841l5.1781616 -29.740494l4.032837 -0.60609436l17.288269 26.364014l-4.2646484 0.6409302l-5.0323486 -8.01297l-11.835815 1.7788391l-1.3800049 8.976654l-3.9864502 0.5991211zm5.8323975 -12.774292l9.595337 -1.4421082l-4.52771 -7.330368q-2.062622 -3.33992 -3.1903076 -5.524704q0.0064697266 2.7799072 -0.44140625 5.5964966l-1.4359131 8.700684zm23.22406 8.407379l-4.1293945 -20.362427l3.1212158 -0.4690857l0.5877075 2.8979645q1.5903931 -3.6993256 5.8549805 -4.3402557q1.854187 -0.27867126 3.5361328 0.16377258q1.6943359 0.42477417 2.6845703 1.3819885q0.9902344 0.95721436 1.5977783 2.3827515q0.39361572 0.92045593 0.88183594 3.327774l2.5373535 12.511841l-3.4766235 0.52249146l-2.5124512 -12.389175q-0.42596436 -2.100647 -1.0546265 -3.080597q-0.6131592 -0.9822693 -1.77594 -1.4553528q-1.1627197 -0.47306824 -2.5533447 -0.2640686q-2.2095947 0.33207703 -3.5458984 1.986557q-1.3239746 1.6368256 -0.5310669 5.5467834l2.2543945 11.116547l-3.4766235 0.52249146zm34.870056 -7.8319397q-1.6018066 1.9155884 -3.2573853 2.8596497q-1.6400757 0.9417114 -3.6951294 1.2505493q-3.3684082 0.5062561 -5.524414 -0.8603821q-2.140564 -1.3689575 -2.6567383 -3.9142456q-0.3046875 -1.502655 0.12640381 -2.831482q0.42797852 -1.3441467 1.3912354 -2.247345q0.96014404 -0.9185333 2.2730713 -1.5108643q0.96380615 -0.42926025 2.984558 -0.98576355q4.1156006 -1.1399536 5.953491 -2.1271973q-0.11212158 -0.70996094 -0.1494751 -0.8939667q-0.42907715 -2.1159668 -1.592102 -2.826004q-1.5651245 -0.9656067 -4.1918945 -0.5708313q-2.456787 0.36923218 -3.4569702 1.4043732q-0.987854 1.0174866 -1.1210938 3.2653809l-3.4926147 0.05090332q0.02508545 -2.2316437 0.82073975 -3.7258606q0.79559326 -1.4942169 2.658142 -2.5167694q1.8625488 -1.0225372 4.5047607 -1.4196472q2.62677 -0.3947754 4.388977 -0.02760315q1.77771 0.3648529 2.7399292 1.1840668q0.9622803 0.81921387 1.557373 2.1834106q0.3503418 0.8637848 0.8167114 3.1637573l0.9328613 4.599945q0.9732666 4.7992706 1.4508057 6.054764q0.48986816 1.237793 1.3751221 2.305603l-3.6311035 0.54571533q-0.75842285 -0.9920654 -1.2052612 -2.4101562zm-1.8545532 -7.6531067q-1.7295532 1.0499725 -5.406372 2.1555786q-2.0855713 0.62942505 -2.9039917 1.1474609q-0.8029785 0.51568604 -1.1327515 1.3236694q-0.3297119 0.8079834 -0.14630127 1.7126465q0.27990723 1.3799744 1.5171509 2.1420593q1.2372437 0.76208496 3.2614136 0.45785522q2.008667 -0.30187988 3.3920288 -1.4104004q1.3988037 -1.1108704 1.8171997 -2.7380066q0.3199463 -1.2489014 -0.14337158 -3.533554l-0.25500488 -1.257309zm10.905334 8.884155l-5.699707 -28.105667l3.4765625 -0.5225067l5.699707 28.105682l-3.4765625 0.52249146zm10.299683 6.5260925l-1.0423584 -3.177246q1.2055664 0.13482666 2.05542 0.0071105957q1.1588745 -0.17416382 1.7764282 -0.6620178q0.6175537 -0.4878235 0.9102783 -1.2428284q0.23425293 -0.5724182 0.546875 -2.7208862q0.03363037 -0.30523682 0.13800049 -0.88974l-11.92627 -19.238037l3.7547607 -0.56430054l6.6557617 11.150253q1.2883911 2.1132507 2.441101 4.4996796q0.12060547 -2.4671936 0.494812 -4.861908l1.9814453 -12.527359l3.4765625 -0.5225067l-3.6020508 21.887817q-0.58917236 3.5330505 -1.0263672 4.910187q-0.5819702 1.8413086 -1.6254883 2.8197632q-1.0280762 0.97613525 -2.6813965 1.2246094q-1.0043335 0.15097046 -2.3275146 -0.09259033zm25.305115 -15.05307l1.1256104 2.95932q-1.4025879 0.54260254 -2.5614624 0.71676636q-1.9005127 0.28564453 -3.0725098 -0.15444946q-1.1564941 -0.4423828 -1.7850342 -1.3433533q-0.61309814 -0.9032898 -1.2443237 -4.015915l-2.3756714 -11.714539l-2.5494995 0.38316345l-0.5441284 -2.6832886l2.5494995 -0.3831787l-1.0198975 -5.0292664l3.0413208 -2.590149l1.4396973 7.099243l3.4920044 -0.5248108l0.54418945 2.6832886l-3.4920654 0.52482605l2.4160767 11.913864q0.29852295 1.4719696 0.5709839 1.8734436q0.26940918 0.38612366 0.72088623 0.57107544q0.46691895 0.18263245 1.239502 0.06652832q0.5871582 -0.088256836 1.5048218 -0.35256958zm-0.850647 -21.566208l-0.8053589 -3.971283l3.4765625 -0.5225067l0.8053589 3.971283l-3.4765625 0.5225067zm4.894287 24.134384l-4.1293945 -20.362427l3.4766235 -0.5225067l4.1293945 20.362442l-3.4766235 0.52249146zm20.642334 -10.781387l3.501892 -0.08387756q0.15576172 3.5948792 -1.7576904 5.9365234q-1.9011841 2.3239899 -5.2541504 2.8279114q-4.2182007 0.63397217 -7.33667 -1.7098541q-3.1029663 -2.3461304 -4.1384277 -7.452072q-0.66851807 -3.2966309 -0.07208252 -5.9301453q0.61187744 -2.6358337 2.6004639 -4.2145386q2.0040283 -1.5810242 4.64624 -1.9781342q3.3375244 -0.5015869 5.7963867 0.86691284q2.4712524 1.3508453 3.6988525 4.3422394l-3.2781372 1.029892q-0.8956909 -1.9826508 -2.340088 -2.8241882q-1.4321289 -0.85920715 -3.1627197 -0.5991211q-2.626709 0.3947754 -3.9006958 2.5139008q-1.2584839 2.116806 -0.43756104 6.164749q0.8302002 4.0939484 2.7856445 5.7277374q1.9677124 1.6161194 4.517212 1.2329559q2.0550537 -0.30885315 3.1629028 -1.7552032q1.1201782 -1.4639893 0.9686279 -4.095688zm5.286133 0.62757874l3.3214111 -1.052185q0.7071533 1.9951782 2.2443848 2.9017792q1.5496216 0.88894653 3.9291382 0.5313263q2.3949585 -0.35993958 3.3579712 -1.5000916q0.96295166 -1.1401672 0.6986084 -2.4434814q-0.23937988 -1.1806488 -1.3928833 -1.6867065q-0.80407715 -0.35317993 -3.793274 -0.6465454q-4.0247803 -0.3747406 -5.6480713 -0.84181213q-1.6109009 -0.4847107 -2.635315 -1.6105804q-1.0090332 -1.1282043 -1.3106079 -2.615509q-0.27679443 -1.3646545 0.123535156 -2.609848q0.39715576 -1.2605438 1.3233032 -2.189743q0.68218994 -0.71875 1.9888916 -1.3417511q1.3221436 -0.62532043 2.9290771 -0.8668213q2.4104614 -0.36227417 4.373657 0.05369568q1.9786377 0.4136505 3.083313 1.4642639q1.1047363 1.0506134 1.8303223 2.9798126l-3.3060303 0.97088623q-0.552063 -1.5444794 -1.8417969 -2.2512665q-1.2774048 -0.7244568 -3.3169556 -0.41792297q-2.3950195 0.35995483 -3.2531128 1.3105316q-0.86120605 0.93525696 -0.6466675 1.9932556q0.13372803 0.659317 0.659729 1.1332855q0.5477295 0.5023041 1.5308838 0.71795654q0.55029297 0.12269592 3.239685 0.42951965q3.8919678 0.4263153 5.471863 0.8366852q1.5922852 0.39271545 2.6537476 1.465622q1.0737915 1.0552521 1.4313965 2.818573q0.3482666 1.7173004 -0.3605957 3.403885q-0.6965332 1.66893 -2.4414673 2.8002014q-1.732605 1.1136322 -4.1585083 1.4782104q-3.9864502 0.59913635 -6.4205933 -0.72569275q-2.4371948 -1.3401489 -3.665039 -4.4895325z" fill-rule="nonzero"></path><path fill="#93c47d" d="m281.871 348.00247l858.5205 -129.02774c34.0813 -5.122101 69.48767 3.3832397 98.430176 23.644943c28.942627 20.261703 49.050415 50.62001 55.900146 84.3965l25.826782 127.35431c9.765625E-4 0.0050964355 -0.002319336 0.009857178 -0.007446289 0.010620117l-1115.5201 167.64294l0 0c-0.005126953 7.9345703E-4 -0.010131836 -0.002746582 -0.011154175 -0.0078125l-25.815613 -127.34653l0 0c-14.263733 -70.335846 31.706223 -136.001 102.67677 -146.66724z" fill-rule="nonzero"></path><path fill="#000000" d="m358.4422 408.7547q-1.4179382 -6.991913 1.5654297 -11.516815q2.983368 -4.5249023 8.963104 -5.423584q3.924652 -0.58984375 7.453003 0.7917175q3.5283508 1.3815918 5.840973 4.462738q2.328064 3.0787964 3.1831665 7.29541q0.8675537 4.277954 -0.19439697 7.913666q-1.0464783 3.6333923 -3.8781128 5.844391q-2.831604 2.211029 -6.5245056 2.7660522q-4.001953 0.6014404 -7.5427246 -0.8414612q-3.5253296 -1.4452515 -5.819397 -4.5133667q-2.2940369 -3.0681458 -3.0465393 -6.7787476zm3.8753052 -0.5192261q1.0292358 5.075287 4.3735046 7.5905457q3.3442688 2.5152893 7.5007324 1.8905945q4.2337036 -0.636261 6.35614 -3.9889526q2.1347656 -3.3703308 1.0340271 -8.798248q-0.6965332 -3.4346313 -2.3901367 -5.8187866q-1.6781311 -2.3864746 -4.2170105 -3.442749q-2.5265503 -1.0739136 -5.323242 -0.653595q-3.9864807 0.5991211 -6.310089 3.7450256q-2.3112488 3.1282349 -1.0239258 9.476166zm30.07306 11.264984l3.4710083 -2.4414062E-4q0.5303955 1.5161133 1.6468811 2.0751343q1.478363 0.7732544 3.718811 0.43652344q2.4259033 -0.364563 3.5433655 -1.5279541q1.1206055 -1.1480408 1.2327576 -2.950348q0.04812622 -1.0974731 -0.6513977 -4.468445q-1.7457886 3.0116577 -5.145111 3.5225525q-4.218231 0.63397217 -7.148529 -2.03833q-2.9334106 -2.6876526 -3.791626 -6.919586q-0.5907898 -2.9132996 -0.04071045 -5.539856q0.56552124 -2.6288757 2.3036804 -4.26474q1.7505188 -1.6535339 4.4854126 -2.0645447q3.6311035 -0.54574585 6.570526 2.0145874l-0.49752808 -2.453308l3.2139282 -0.4830017l3.5696716 17.602448q0.9639282 4.7532654 0.37615967 6.879883q-0.56918335 2.1395874 -2.4528503 3.607727q-1.8681641 1.4658203 -4.9584656 1.9302673q-3.6774597 0.55267334 -6.266083 -0.7489319q-2.588623 -1.3016052 -3.1799011 -4.609833zm0.39260864 -12.667786q0.81466675 4.017273 2.7792969 5.6180725q1.9801025 1.5984497 4.4059753 1.2338867q2.394989 -0.35995483 3.6473694 -2.4284363q1.2492676 -2.0838013 0.45635986 -5.9937744q-0.758728 -3.741272 -2.825409 -5.3741455q-2.0543213 -1.6505127 -4.402954 -1.2975159q-2.3177185 0.34832764 -3.5607605 2.462799q-1.2461548 2.0991516 -0.49987793 5.779114zm21.851532 7.5866394l-4.1293945 -20.362427l3.1366577 -0.47140503l0.6281128 3.09729q0.74819946 -2.3561096 1.6280823 -3.1993713q0.8798523 -0.8432617 2.085083 -1.0244141q1.7614746 -0.26470947 3.811737 0.5805664l-0.55532837 3.3857727q-1.4194031 -0.5609131 -2.7018738 -0.36816406q-1.1434021 0.17184448 -1.9151001 0.99884033q-0.7593689 0.8093567 -0.9031372 2.0634155q-0.21401978 1.9282227 0.23065186 4.1208496l2.1610718 10.656555l-3.4765625 0.52249146zm26.089752 -6.512329q-1.6018372 1.9155884 -3.2573853 2.8596191q-1.6401062 0.9417114 -3.69516 1.2505798q-3.3684082 0.5062256 -5.524414 -0.8603821q-2.1405334 -1.3689575 -2.6567078 -3.9142761q-0.30471802 -1.5026245 0.12637329 -2.8314514q0.42800903 -1.3441772 1.3912659 -2.2473755q0.96014404 -0.91851807 2.2730408 -1.5108337q0.96380615 -0.42926025 2.984558 -0.9857788q4.115631 -1.1399536 5.953491 -2.1271973q-0.11212158 -0.70996094 -0.14944458 -0.8939514q-0.42910767 -2.1159973 -1.5921326 -2.8260193q-1.5651245 -0.9656067 -4.1918945 -0.5708313q-2.456787 0.36923218 -3.4569702 1.4043579q-0.9878235 1.0175171 -1.1210938 3.2654114l-3.4926147 0.050872803q0.025115967 -2.2316284 0.82073975 -3.7258606q0.7956238 -1.4942017 2.6581726 -2.5167542q1.8625488 -1.0225525 4.5047607 -1.4196472q2.6267395 -0.3947754 4.388977 -0.02758789q1.7776794 0.36483765 2.7399292 1.1840515q0.96224976 0.81921387 1.557373 2.1834106q0.35031128 0.86376953 0.8167114 3.1637573l0.9328613 4.599945q0.9732666 4.799286 1.4507751 6.0547485q0.48986816 1.2378235 1.3751526 2.305603l-3.6311035 0.54571533q-0.75845337 -0.9920349 -1.2052612 -2.4101257zm-1.8545532 -7.653137q-1.7295837 1.0499878 -5.406372 2.1555786q-2.0855713 0.62945557 -2.9040222 1.1474609q-0.8029785 0.51571655 -1.132721 1.3236694q-0.32974243 0.8079834 -0.14630127 1.7126465q0.2798767 1.3799744 1.5171204 2.1420593q1.2372742 0.76208496 3.2614136 0.45788574q2.0086975 -0.3019104 3.3920593 -1.4104309q1.3988037 -1.1108704 1.8171997 -2.737976q0.31991577 -1.2489319 -0.1434021 -3.5335693l-0.25497437 -1.2573242zm11.816925 8.747162l-3.585205 -17.679138l-3.0748596 0.4621277l-0.54415894 -2.6832886l3.0748596 -0.4621277l-0.43844604 -2.1619873q-0.416687 -2.0546265 -0.26339722 -3.1047058q0.23934937 -1.410614 1.3384705 -2.429016q1.0960083 -1.0337524 3.3673706 -1.3751221q1.4678955 -0.22061157 3.3163147 -0.13500977l0.084106445 3.084259q-1.1220093 -0.03677368 -2.080017 0.10720825q-1.5914917 0.23919678 -2.1190796 1.0137024q-0.512146 0.7721863 -0.13900757 2.612152l0.379364 1.8706665l4.0019226 -0.60147095l0.54415894 2.683319l-4.0019226 0.6014404l3.585205 17.679138l-3.4456787 0.5178528zm11.589935 6.332184l-1.0423889 -3.177246q1.2055969 0.13482666 2.05542 0.0071105957q1.158844 -0.17416382 1.7764282 -0.6620178q0.6175842 -0.4878235 0.91030884 -1.2428284q0.2341919 -0.5724182 0.546875 -2.7208862q0.03363037 -0.30523682 0.13800049 -0.88974l-11.92627 -19.238037l3.7546997 -0.56430054l6.6558228 11.150269q1.2883606 2.1132202 2.44104 4.4996643q0.12063599 -2.4671936 0.494812 -4.861908l1.9814758 -12.527374l3.476593 -0.52249146l-3.6020813 21.887817q-0.58914185 3.5330505 -1.0263977 4.910187q-0.5819092 1.8413086 -1.6254578 2.8197632q-1.0280457 0.97613525 -2.681366 1.2246094q-1.0043335 0.15097046 -2.3275146 -0.09259033zm30.414886 -12.645142l-5.6996765 -28.105652l3.7392578 -0.5619812l5.6996765 28.105682l-3.7392578 0.5619507zm9.908264 -1.4891052l-4.1293945 -20.362427l3.1212158 -0.4690857l0.587677 2.8979492q1.5903931 -3.6993103 5.855011 -4.3402405q1.8541565 -0.278656 3.5361328 0.16375732q1.6942749 0.4248047 2.6845703 1.3819885q0.9902344 0.95721436 1.5977783 2.3827515q0.39361572 0.9204712 0.88183594 3.3277893l2.5372925 12.511841l-3.4765625 0.52249146l-2.5124512 -12.389191q-0.4260254 -2.1006165 -1.0546265 -3.080597q-0.6131897 -0.9822693 -1.77594 -1.4553223q-1.1627197 -0.4730835 -2.5533752 -0.2640686q-2.2095337 0.33206177 -3.545868 1.9865417q-1.3240051 1.6368408 -0.5310974 5.5467834l2.2543945 11.116547l-3.476593 0.52249146zm22.833435 -3.4316711l-3.585266 -17.679108l-3.074829 0.4621277l-0.5441284 -2.683319l3.074829 -0.46209717l-0.43847656 -2.1619873q-0.41662598 -2.054657 -0.2633667 -3.1047058q0.23937988 -1.410614 1.338501 -2.4290466q1.0959473 -1.0337219 3.3673096 -1.3750916q1.4678955 -0.22061157 3.3163452 -0.13500977l0.084106445 3.084259q-1.1220093 -0.03677368 -2.080017 0.10720825q-1.5914917 0.23916626 -2.1190796 1.0137024q-0.512146 0.7721863 -0.13903809 2.612152l0.37939453 1.8706665l4.001892 -0.60147095l0.54418945 2.683319l-4.001953 0.6014404l3.585266 17.679108l-3.4456787 0.5178528zm6.7928467 -11.512421q-1.1473999 -5.6579285 1.4697876 -8.847931q2.1820068 -2.6664124 5.998474 -3.2399902q4.2182617 -0.63397217 7.4665527 1.7219238q3.2451172 2.3405762 4.227722 7.185852q0.7991333 3.9406128 0.066467285 6.373413q-0.7357788 2.41745 -2.7521362 4.0161133q-2.0195312 1.5833435 -4.692627 1.9851074q-4.310974 0.6478882 -7.5252075 -1.6973267q-3.2142334 -2.3452148 -4.259033 -7.497162zm3.569275 -0.5364075q0.7929077 3.9099426 2.902954 5.5994873q2.1254883 1.6872253 4.7367554 1.2947693q2.5803833 -0.38781738 3.9006348 -2.5928955q1.3325195 -2.2227173 0.52093506 -6.2246704q-0.7680054 -3.7872925 -2.8903809 -5.4591675q-2.1254883 -1.6872253 -4.6904297 -1.3017578q-2.611267 0.39245605 -3.9500732 2.5845337q-1.3233032 2.1897278 -0.5303955 6.099701zm21.500916 8.998169l3.4710083 -2.4414062E-4q0.5303955 1.5161438 1.6468506 2.0751648q1.4783936 0.7732544 3.718872 0.43652344q2.4258423 -0.3645935 3.543335 -1.5279541q1.1206055 -1.1480408 1.2327881 -2.9503784q0.048095703 -1.0974426 -0.6514282 -4.4684143q-1.7457886 3.0116577 -5.1450806 3.522522q-4.2182617 0.63397217 -7.1485596 -2.03833q-2.9334106 -2.687622 -3.791626 -6.919586q-0.5908203 -2.9132996 -0.04071045 -5.5398254q0.5654907 -2.6288757 2.303711 -4.26474q1.7504883 -1.6535339 4.4854126 -2.0645752q3.6310425 -0.54571533 6.5704956 2.014618l-0.49749756 -2.453308l3.2138672 -0.48303223l3.5697021 17.602448q0.9639282 4.753296 0.37615967 6.879883q-0.56921387 2.139618 -2.4528198 3.6077576q-1.8682251 1.4657898 -4.958496 1.9302368q-3.6774292 0.55267334 -6.2661133 -0.7489319q-2.588623 -1.3015747 -3.1798706 -4.609833zm0.39257812 -12.667786q0.81469727 4.0173035 2.779358 5.6180725q1.9801025 1.5984802 4.405945 1.2338867q2.3949585 -0.35995483 3.6473389 -2.4284058q1.2492676 -2.0838318 0.45635986 -5.9937744q-0.758728 -3.7413025 -2.8253784 -5.3741455q-2.0543213 -1.6505127 -4.402954 -1.2975464q-2.317749 0.34832764 -3.560791 2.4628296q-1.2461548 2.099121 -0.49987793 5.7790833zm21.851562 7.5866394l-4.1293945 -20.362427l3.1366577 -0.47140503l0.6281128 3.09729q0.74823 -2.3561096 1.6280518 -3.1993713q0.8798828 -0.8432617 2.085083 -1.0243835q1.7614746 -0.26474 3.8117676 0.5805664l-0.5553589 3.3857727q-1.4193726 -0.5609131 -2.7018433 -0.36816406q-1.1434326 0.17184448 -1.9151001 0.99884033q-0.7593994 0.8093567 -0.9031372 2.063385q-0.21398926 1.9282227 0.23065186 4.12088l2.1610718 10.656525l-3.4765625 0.52249146zm26.089722 -6.512329q-1.6018066 1.9155884 -3.2573853 2.8596497q-1.6400757 0.9417114 -3.6951294 1.2505493q-3.3684082 0.5062561 -5.524414 -0.8603821q-2.140503 -1.3689575 -2.6566772 -3.9142456q-0.30474854 -1.502655 0.12634277 -2.831482q0.42803955 -1.3441772 1.3912354 -2.247345q0.96014404 -0.91851807 2.2730713 -1.5108643q0.96380615 -0.42926025 2.984558 -0.9857788q4.1156616 -1.1399536 5.953491 -2.1271667q-0.11212158 -0.70999146 -0.14941406 -0.89398193q-0.42913818 -2.1159668 -1.5921631 -2.8260193q-1.5651245 -0.9656067 -4.1918945 -0.5708313q-2.456787 0.36923218 -3.4569702 1.4043884q-0.987854 1.0174866 -1.1210938 3.2653809l-3.4926147 0.05090332q0.02508545 -2.231659 0.82073975 -3.7258606q0.7956543 -1.4942322 2.6582031 -2.5167542q1.8624878 -1.0225525 4.5046997 -1.4196472q2.62677 -0.3947754 4.388977 -0.027618408q1.77771 0.36483765 2.7399902 1.1840515q0.96221924 0.81921387 1.557312 2.1834412q0.3503418 0.86376953 0.81677246 3.1637268l0.9328003 4.599945q0.9732666 4.799286 1.4508057 6.0547485q0.48986816 1.2378235 1.3751221 2.305603l-3.6310425 0.54574585q-0.7584839 -0.9920654 -1.2053223 -2.4101562zm-1.8544922 -7.6531067q-1.7296143 1.0499573 -5.406433 2.1555786q-2.0855103 0.62942505 -2.9039917 1.1474609q-0.8029785 0.51568604 -1.1327515 1.3236694q-0.3297119 0.8079834 -0.14624023 1.7126465q0.2798462 1.3799744 1.5170898 2.1420593q1.2373047 0.76208496 3.2614136 0.45785522q2.008728 -0.30187988 3.3920288 -1.4104309q1.3988647 -1.1108398 1.8171997 -2.737976q0.3199463 -1.2489014 -0.14337158 -3.5335388l-0.25494385 -1.2573242zm11.816895 8.747131l-3.585205 -17.679108l-3.074829 0.46209717l-0.54418945 -2.6832886l3.074829 -0.4621277l-0.43841553 -2.1619568q-0.416687 -2.054657 -0.26342773 -3.1047058q0.23937988 -1.4106445 1.338501 -2.4290466q1.0960083 -1.0337524 3.3673706 -1.3750916q1.4678955 -0.22061157 3.3163452 -0.13500977l0.084106445 3.084259q-1.1220703 -0.03677368 -2.080017 0.107177734q-1.5915527 0.23919678 -2.1191406 1.0137024q-0.512146 0.7722168 -0.13897705 2.6121826l0.3793335 1.870636l4.001953 -0.6014404l0.5441284 2.6832886l-4.001892 0.60147095l3.585205 17.679108l-3.4456787 0.5178528zm5.2766113 -25.662964l-0.8053589 -3.971283l3.4765625 -0.522522l0.8053589 3.9713135l-3.4765625 0.52249146zm4.894348 24.134369l-4.1293945 -20.362427l3.4765625 -0.52249146l4.1293945 20.362427l-3.4765625 0.52249146zm20.642334 -10.781372l3.501831 -0.08389282q0.15582275 3.5948792 -1.7576904 5.9365234q-1.901123 2.3240051 -5.2540894 2.8279114q-4.2182617 0.63397217 -7.33667 -1.7098389q-3.1030273 -2.3461304 -4.138489 -7.4520874q-0.66851807 -3.2966309 -0.07208252 -5.9301453q0.61187744 -2.6358337 2.6004639 -4.2145386q2.0040894 -1.5810242 4.64624 -1.9781189q3.3375244 -0.5015869 5.7964478 0.86691284q2.4711914 1.3508301 3.6988525 4.342224l-3.2781982 1.0299072q-0.8956299 -1.982666 -2.340088 -2.8241882q-1.4321289 -0.8592224 -3.1626587 -0.5991211q-2.62677 0.3947754 -3.9006958 2.5138855q-1.2585449 2.1168213 -0.43762207 6.1647644q0.83026123 4.093933 2.7856445 5.727722q1.9677734 1.6161194 4.517212 1.2329712q2.0550537 -0.3088684 3.1629028 -1.7552185q1.1202393 -1.4639893 0.96868896 -4.0956726z" fill-rule="nonzero"></path><path fill="#6aa84f" d="m131.3382 477.9542l858.52045 -129.02774c34.0813 -5.122101 69.48767 3.3832397 98.4303 23.644958c28.942505 20.261688 49.050415 50.620026 55.900024 84.396484l25.826782 127.35431c0.0010986328 0.005126953 -0.002319336 0.009887695 -0.007446289 0.010620117l-1115.5201 167.64294l0 0c-0.0051345825 7.9345703E-4 -0.010131836 -0.002746582 -0.011161804 -0.0078125l-25.815609 -127.3465l0 0c-14.263734 -70.33588 31.706223 -136.00104 102.67677 -146.66727z" fill-rule="nonzero"></path><path fill="#000000" d="m207.9094 538.7064q-1.417923 -6.9919434 1.5654297 -11.516785q2.983368 -4.5249023 8.963089 -5.423645q3.9246826 -0.58984375 7.453018 0.79174805q3.5283508 1.3815918 5.8409576 4.4627075q2.328064 3.0788574 3.1831818 7.295471q0.86753845 4.277954 -0.19438171 7.9136353q-1.0464935 3.6333618 -3.8781128 5.8444214q-2.8316345 2.2109985 -6.524536 2.7660522q-4.001938 0.6014404 -7.5427246 -0.8414917q-3.5253296 -1.4452515 -5.8193817 -4.5133667q-2.2940521 -3.0681152 -3.0465393 -6.7787476zm3.8753052 -0.5192261q1.0292358 5.0752563 4.3735046 7.590576q3.3442688 2.5152588 7.500717 1.890564q4.2337036 -0.6362915 6.35614 -3.9889526q2.134781 -3.3703003 1.0340271 -8.798279q-0.69651794 -3.4345703 -2.3901215 -5.8187256q-1.6781464 -2.3864746 -4.2170105 -3.442749q-2.526535 -1.0739746 -5.3232574 -0.6536255q-3.9864807 0.5991211 -6.310074 3.7450562q-2.3112488 3.1282349 -1.0239258 9.476135zm30.073044 11.264954l3.4710388 -2.4414062E-4q0.53038025 1.5161743 1.6468506 2.0751953q1.4783783 0.7732544 3.7188416 0.43652344q2.4258728 -0.36462402 3.5433502 -1.5279541q1.1205902 -1.1480713 1.2327576 -2.9503784q0.04812622 -1.0974731 -0.65141296 -4.468445q-1.7457733 3.0116577 -5.145096 3.522583q-4.2182465 0.63391113 -7.148529 -2.03833q-2.9333954 -2.687683 -3.791626 -6.9196167q-0.5907898 -2.913269 -0.040725708 -5.539856q0.5655365 -2.6288452 2.3036957 -4.2647095q1.7505035 -1.6535645 4.4854126 -2.0645752q3.6311035 -0.54571533 6.570526 2.0145874l-0.49751282 -2.453308l3.2138977 -0.48303223l3.569687 17.602478q0.9639282 4.753296 0.37615967 6.879883q-0.56921387 2.1395874 -2.4528503 3.607727q-1.8681793 1.4658203 -4.9584656 1.9302368q-3.6774597 0.5527344 -6.266083 -0.74890137q-2.5886383 -1.3015747 -3.1799164 -4.6098633zm0.39260864 -12.667786q0.814682 4.017334 2.7793274 5.618103q1.9800873 1.5984497 4.4059753 1.2338867q2.3949738 -0.35992432 3.6473541 -2.4284058q1.2492676 -2.0838013 0.4563446 -5.9937744q-0.75871277 -3.741272 -2.8253937 -5.3741455q-2.0543365 -1.6505127 -4.402954 -1.2975464q-2.3177185 0.34832764 -3.5607758 2.4628296q-1.2461548 2.099121 -0.49987793 5.7790527zm21.851547 7.58667l-4.1293945 -20.362427l3.1366577 -0.47143555l0.6281128 3.097351q0.74819946 -2.3561401 1.6280823 -3.1994019q0.8798523 -0.8432617 2.085083 -1.0244141q1.7614746 -0.26470947 3.811737 0.5805664l-0.55532837 3.3858032q-1.4194031 -0.5609131 -2.7018738 -0.36816406q-1.1434021 0.17181396 -1.9151306 0.99884033q-0.7593384 0.8093262 -0.9031067 2.0633545q-0.21401978 1.9282227 0.23065186 4.1209106l2.1610718 10.656494l-3.4765625 0.522522zm26.089752 -6.512329q-1.6018372 1.9155884 -3.2573853 2.8596191q-1.6401062 0.9417114 -3.69516 1.2505493q-3.3684082 0.5062866 -5.524414 -0.86035156q-2.1405334 -1.3689575 -2.6567078 -3.9142456q-0.30471802 -1.5026855 0.12637329 -2.831482q0.42800903 -1.3441772 1.3912659 -2.2473755q0.96014404 -0.91851807 2.2730408 -1.5108643q0.96380615 -0.42926025 2.984558 -0.9857178q4.115631 -1.1399536 5.953491 -2.1271973q-0.11212158 -0.70996094 -0.14944458 -0.89398193q-0.42910767 -2.1159668 -1.5921326 -2.8259888q-1.5651245 -0.9656372 -4.1918945 -0.5708618q-2.456787 0.3692627 -3.4569702 1.4043579q-0.9878235 1.0175171 -1.1210938 3.2653809l-3.4926147 0.05090332q0.025115967 -2.2316284 0.82073975 -3.72583q0.7956238 -1.4942017 2.6581726 -2.5167847q1.8625488 -1.022522 4.5047607 -1.4196167q2.6267395 -0.3947754 4.388977 -0.027648926q1.7776794 0.36486816 2.7399292 1.184082q0.96224976 0.81921387 1.557373 2.1834106q0.35031128 0.86376953 0.8167114 3.1637573l0.9328613 4.5999756q0.9732666 4.7992554 1.4507751 6.0547485q0.48986816 1.237793 1.3751526 2.305603l-3.6311035 0.54571533q-0.75845337 -0.9920654 -1.2052612 -2.4101562zm-1.8545532 -7.653137q-1.7295837 1.0499878 -5.406372 2.1555786q-2.0855713 0.62945557 -2.9040222 1.1474609q-0.8029785 0.51568604 -1.132721 1.3236694q-0.32974243 0.8079834 -0.14630127 1.7126465q0.2798462 1.3800049 1.5171204 2.1420898q1.2372742 0.76208496 3.2614136 0.4578247q2.0086975 -0.30187988 3.3920593 -1.4104004q1.3988037 -1.1108398 1.8171997 -2.737976q0.31991577 -1.2489014 -0.1434021 -3.5335693l-0.25497437 -1.2573242zm11.816925 8.747192l-3.585205 -17.679138l-3.0748596 0.46209717l-0.54415894 -2.6832886l3.0748596 -0.46209717l-0.43844604 -2.1619873q-0.416687 -2.0546875 -0.26339722 -3.1047363q0.23934937 -1.410614 1.3384705 -2.429016q1.0960083 -1.0337524 3.3673706 -1.3751221q1.4678955 -0.22061157 3.3163147 -0.13497925l0.084106445 3.084259q-1.1220093 -0.0368042 -2.080017 0.107177734q-1.5914917 0.23919678 -2.1190796 1.0137329q-0.512146 0.77215576 -0.13900757 2.6121216l0.3793335 1.8706665l4.001953 -0.6014404l0.54415894 2.6832886l-4.001953 0.6014404l3.5852356 17.679138l-3.4456787 0.5178833zm11.589905 6.3321533l-1.0423584 -3.177246q1.2055969 0.13482666 2.05542 0.007080078q1.158844 -0.1741333 1.7764282 -0.6619873q0.6175842 -0.48779297 0.91030884 -1.2427979q0.2341919 -0.57244873 0.546875 -2.7208862q0.033599854 -0.30529785 0.13800049 -0.8897705l-11.92627 -19.238037l3.7546997 -0.56427l6.655792 11.150269q1.2883911 2.1132202 2.4410706 4.499634q0.12063599 -2.467163 0.494812 -4.8618774l1.9814758 -12.527405l3.476593 -0.52246094l-3.6020813 21.887817q-0.58917236 3.53302 -1.0263977 4.9101562q-0.5819397 1.8413086 -1.6254578 2.8197632q-1.0280457 0.97613525 -2.681366 1.2246094q-1.0043335 0.15093994 -2.3275452 -0.09259033zm29.858673 -12.561523l-5.6996765 -28.105652l20.473206 -3.0769348l0.67474365 3.3272705l-16.733948 2.5149536l1.7444458 8.601898l15.667786 -2.3547363l0.66851807 3.2966309l-15.667786 2.3547363l1.9403076 9.567871l17.382935 -2.6124878l0.67163086 3.3120117l-21.122162 3.1744385zm25.858032 -3.8862305l-4.1293945 -20.362427l3.1212158 -0.4690857l0.587677 2.8979797q1.5903931 -3.6993408 5.855011 -4.340271q1.8541565 -0.278656 3.5361328 0.16378784q1.6943054 0.42477417 2.6845398 1.3819885q0.9902344 0.95721436 1.5977783 2.3827515q0.39364624 0.9204712 0.88183594 3.3277588l2.5373535 12.511841l-3.476593 0.522522l-2.5124512 -12.389221q-0.42599487 -2.100647 -1.0546265 -3.0805664q-0.6131897 -0.9822693 -1.77594 -1.4553528q-1.1627197 -0.4730835 -2.5533447 -0.2640686q-2.2095642 0.33206177 -3.5458984 1.9865417q-1.3240051 1.6368713 -0.5310669 5.5467834l2.254364 11.116516l-3.476593 0.522522zm21.70758 -1.5244141l3.4710388 -2.4414062E-4q0.530365 1.5161743 1.6468506 2.0751953q1.478363 0.7732544 3.718811 0.43652344q2.4259033 -0.36462402 3.5433655 -1.5279541q1.1206055 -1.1480713 1.2327576 -2.9503784q0.04812622 -1.0974731 -0.6513977 -4.468445q-1.7457886 3.0116577 -5.145111 3.522583q-4.218231 0.63391113 -7.148529 -2.038391q-2.9334106 -2.687622 -3.791626 -6.9195557q-0.5907898 -2.913269 -0.04071045 -5.539856q0.56552124 -2.6288757 2.3036804 -4.26474q1.7505188 -1.6535339 4.4854126 -2.0645447q3.6311035 -0.54571533 6.570526 2.0145874l-0.49749756 -2.453308l3.2138977 -0.4830017l3.5696716 17.602448q0.96395874 4.753296 0.37615967 6.879883q-0.56918335 2.1395874 -2.4528503 3.607727q-1.8681641 1.4658203 -4.9584656 1.9302368q-3.6774597 0.5527344 -6.266083 -0.74890137q-2.588623 -1.3015747 -3.1799011 -4.6098633zm0.39260864 -12.667786q0.81466675 4.017334 2.7793274 5.618103q1.980072 1.5984497 4.405945 1.2338867q2.394989 -0.35992432 3.6473694 -2.4284058q1.2492676 -2.0838623 0.45635986 -5.9937744q-0.758728 -3.7413025 -2.825409 -5.3741455q-2.0543213 -1.6505127 -4.402954 -1.2975464q-2.3177185 0.34832764 -3.5607605 2.462799q-1.2461548 2.0991516 -0.49987793 5.7790833zm17.019012 -16.557007l-0.8053589 -3.971283l3.476593 -0.52249146l0.8053589 3.971283l-3.476593 0.52249146zm4.8943176 24.1344l-4.1293945 -20.362427l3.476593 -0.522522l4.1293945 20.362427l-3.476593 0.522522zm8.772583 -1.3184204l-4.1293945 -20.362457l3.1211853 -0.4690857l0.5877075 2.8979797q1.5903931 -3.6993408 5.8549805 -4.340271q1.854187 -0.278656 3.5361633 0.16375732q1.6943054 0.4248047 2.6845398 1.382019q0.9902344 0.95718384 1.5977783 2.382721q0.39364624 0.9204712 0.88183594 3.3277893l2.537323 12.511871l-3.4765625 0.52246094l-2.5124817 -12.38916q-0.42599487 -2.100647 -1.0546265 -3.080597q-0.6131897 -0.9822998 -1.7759094 -1.4553528q-1.1627502 -0.4730835 -2.5533752 -0.2640686q-2.2095642 0.33206177 -3.5458984 1.9865417q-1.3239746 1.6368408 -0.5310669 5.5467834l2.254364 11.116547l-3.4765625 0.522522zm34.713562 -11.979767l3.6748962 -0.09408569q-0.21548462 3.2556763 -2.1663818 5.3343506q-1.9385681 2.0609741 -5.523285 2.5997314q-4.496399 0.67578125 -7.6951904 -1.6717529q-3.1864624 -2.3651733 -4.193939 -7.33313q-1.0416565 -5.136627 1.040741 -8.372681q2.0978394 -3.2383728 6.346985 -3.8769836q4.1101074 -0.6177063 7.287323 1.7804871q3.1741333 2.382843 4.1971436 7.4274597q0.062194824 0.30664062 0.15567017 0.9246216l-15.296967 2.2989807q0.87872314 3.312439 2.957672 4.848633q2.0758057 1.520935 4.656189 1.1331177q1.9005432 -0.28564453 3.042694 -1.484314q1.1576233 -1.2010498 1.516449 -3.5144348zm-12.547394 -3.849823l11.449554 -1.7207642q-0.7541809 -2.5411377 -2.0969849 -3.666565q-2.0575256 -1.744812 -4.7151794 -1.345398q-2.394989 0.35995483 -3.7094421 2.2007446q-1.2990112 1.8384705 -0.927948 4.5319824z" fill-rule="nonzero"></path><path fill="#274e13" d="m-1.4173229 594.50134l968.1575 0l0 125.51178l-968.1575 0z" fill-rule="nonzero"></path><path fill="#ffd966" d="m-1.4173229 571.7323l845.3239 0l0 -22.75592l114.67609 45.51178l-114.67609 45.51184l0 -22.75592l-845.3239 0z" fill-rule="nonzero"></path><path fill="#000000" d="m63.06705 606.2082l0 -19.03125l-6.796875 0l0 -3.875l18.203129 0l0 3.875l-6.78125 0l0 19.03125l-4.625004 0zm14.359379 -18.84375l0 -4.0625l4.390625 0l0 4.0625l-4.390625 0zm0 18.84375l0 -16.59375l4.390625 0l0 16.59375l-4.390625 0zm8.5625 -16.59375l4.046875 0l0 2.265625q2.171875 -2.640625 5.171875 -2.640625q1.59375 0 2.765625 0.65625q1.171875 0.65625 1.921875 1.984375q1.09375 -1.328125 2.359375 -1.984375q1.265625 -0.65625 2.703125 -0.65625q1.828125 0 3.09375 0.75q1.265625 0.734375 1.890625 2.171875q0.453125 1.0625 0.453125 3.4375l0 10.609375l-4.390625 0l0 -9.484375q0 -2.46875 -0.453125 -3.1875q-0.609375 -0.9375 -1.875 -0.9375q-0.921875 0 -1.734375 0.5625q-0.8125 0.5625 -1.171875 1.65625q-0.359375 1.078125 -0.359375 3.421875l0 7.96875l-4.390625 0l0 -9.09375q0 -2.421875 -0.234375 -3.125q-0.234375 -0.703125 -0.734375 -1.046875q-0.484375 -0.34375 -1.328125 -0.34375q-1.015625 0 -1.828125 0.546875q-0.8125 0.546875 -1.171875 1.578125q-0.34375 1.03125 -0.34375 3.421875l0 8.0625l-4.390625 0l0 -16.59375zm38.390625 11.3125l4.3749924 0.734375q-0.8437424 2.40625 -2.6718674 3.671875q-1.8125 1.25 -4.546875 1.25q-4.328125 0 -6.40625 -2.828125q-1.640625 -2.265625 -1.640625 -5.71875q0 -4.125 2.15625 -6.453125q2.15625 -2.34375 5.453125 -2.34375q3.703125 0 5.84375 2.453125q2.1406174 2.4375 2.0468674 7.484375l-10.999992 0q0.046875 1.953125 1.0625 3.046875q1.015625 1.078125 2.53125 1.078125q1.03125 0 1.734375 -0.5625q0.703125 -0.5625 1.0625 -1.8125zm0.25 -4.4375q-0.046875 -1.90625 -0.984375 -2.890625q-0.9375 -1.0 -2.28125 -1.0q-1.4375 0 -2.375 1.046875q-0.9375 1.046875 -0.921875 2.84375l6.5625 0zm7.9374924 9.71875l0 -22.90625l4.390625 0l0 22.90625l-4.390625 0zm8.890625 -18.84375l0 -4.0625l4.390625 0l0 4.0625l-4.390625 0zm0 18.84375l0 -16.59375l4.390625 0l0 16.59375l-4.390625 0zm23.984375 0l-4.390625 0l0 -8.46875q0 -2.6875 -0.28125 -3.46875q-0.28125 -0.796875 -0.921875 -1.234375q-0.625 -0.4375 -1.515625 -0.4375q-1.140625 0 -2.046875 0.625q-0.90625 0.625 -1.25 1.65625q-0.328125 1.03125 -0.328125 3.8125l0 7.515625l-4.390625 0l0 -16.59375l4.078125 0l0 2.4375q2.171875 -2.8125 5.46875 -2.8125q1.453125 0 2.65625 0.53125q1.203125 0.515625 1.8125 1.328125q0.625 0.8125 0.859375 1.84375q0.25 1.03125 0.25 2.953125l0 10.3125zm14.0625 -5.28125l4.375 0.734375q-0.84375 2.40625 -2.671875 3.671875q-1.8125 1.25 -4.546875 1.25q-4.328125 0 -6.40625 -2.828125q-1.640625 -2.265625 -1.640625 -5.71875q0 -4.125 2.15625 -6.453125q2.15625 -2.34375 5.453125 -2.34375q3.703125 0 5.84375 2.453125q2.140625 2.4375 2.046875 7.484375l-11.0 0q0.046875 1.953125 1.0625 3.046875q1.015625 1.078125 2.53125 1.078125q1.03125 0 1.734375 -0.5625q0.703125 -0.5625 1.0625 -1.8125zm0.25 -4.4375q-0.046875 -1.90625 -0.984375 -2.890625q-0.9375 -1.0 -2.28125 -1.0q-1.4375 0 -2.375 1.046875q-0.9375 1.046875 -0.921875 2.84375l6.5625 0z" fill-rule="nonzero"></path><path fill="#000000" fill-opacity="0.0" d="m732.56696 648.0l227.43304 0l0 45.51184l-227.43304 0z" fill-rule="nonzero"></path><path fill="#ffffff" d="m777.4866 664.8137l9.15625 0q2.71875 0 4.046875 0.234375q1.34375 0.21875 2.390625 0.9375q1.0625 0.71875 1.765625 1.921875q0.703125 1.1875 0.703125 2.671875q0 1.609375 -0.875 2.953125q-0.859375 1.34375 -2.34375 2.015625q2.09375 0.609375 3.21875 2.078125q1.125 1.46875 1.125 3.453125q0 1.5625 -0.734375 3.046875q-0.71875 1.46875 -1.984375 2.359375q-1.25 0.875 -3.09375 1.078125q-1.15625 0.125 -5.578125 0.15625l-7.796875 0l0 -22.90625zm4.625 3.8125l0 5.296875l3.03125 0q2.703125 0 3.359375 -0.078125q1.1875 -0.140625 1.859375 -0.8125q0.6875 -0.6875 0.6875 -1.796875q0 -1.0625 -0.59375 -1.71875q-0.578125 -0.671875 -1.734375 -0.8125q-0.6875 -0.078125 -3.953125 -0.078125l-2.65625 0zm0 9.109375l0 6.125l4.28125 0q2.5 0 3.171875 -0.140625q1.03125 -0.1875 1.671875 -0.90625q0.65625 -0.734375 0.65625 -1.953125q0 -1.03125 -0.5 -1.75q-0.5 -0.71875 -1.453125 -1.046875q-0.9375 -0.328125 -4.09375 -0.328125l-3.734375 0zm29.359375 9.984375l0 -2.484375q-0.90625 1.328125 -2.390625 2.09375q-1.46875 0.765625 -3.109375 0.765625q-1.671875 0 -3.0 -0.734375q-1.328125 -0.734375 -1.921875 -2.0625q-0.59375 -1.328125 -0.59375 -3.671875l0 -10.5l4.390625 0l0 7.625q0 3.5 0.234375 4.296875q0.25 0.78125 0.890625 1.25q0.640625 0.453125 1.625 0.453125q1.125 0 2.015625 -0.609375q0.890625 -0.625 1.21875 -1.53125q0.328125 -0.921875 0.328125 -4.484375l0 -7.0l4.390625 0l0 16.59375l-4.078125 0zm7.078125 -4.734375l4.40625 -0.671875q0.28125 1.28125 1.140625 1.953125q0.859375 0.65625 2.40625 0.65625q1.703125 0 2.5625 -0.625q0.578125 -0.4375 0.578125 -1.171875q0 -0.5 -0.3125 -0.828125q-0.328125 -0.3125 -1.46875 -0.578125q-5.3125 -1.171875 -6.734375 -2.140625q-1.96875 -1.34375 -1.96875 -3.734375q0 -2.15625 1.703125 -3.625q1.703125 -1.46875 5.28125 -1.46875q3.40625 0 5.0625 1.109375q1.65625 1.109375 2.28125 3.28125l-4.140625 0.765625q-0.265625 -0.96875 -1.015625 -1.484375q-0.734375 -0.515625 -2.109375 -0.515625q-1.734375 0 -2.484375 0.484375q-0.5 0.34375 -0.5 0.890625q0 0.46875 0.4375 0.796875q0.59375 0.4375 4.09375 1.234375q3.515625 0.796875 4.90625 1.953125q1.375 1.171875 1.375 3.265625q0 2.28125 -1.90625 3.921875q-1.90625 1.640625 -5.640625 1.640625q-3.390625 0 -5.375 -1.375q-1.96875 -1.375 -2.578125 -3.734375zm19.34375 -14.109375l0 -4.0625l4.390625 0l0 4.0625l-4.390625 0zm0 18.84375l0 -16.59375l4.390625 0l0 16.59375l-4.390625 0zm23.984375 0l-4.390625 0l0 -8.46875q0 -2.6875 -0.28125 -3.46875q-0.28125 -0.796875 -0.921875 -1.234375q-0.625 -0.4375 -1.515625 -0.4375q-1.140625 0 -2.046875 0.625q-0.90625 0.625 -1.25 1.65625q-0.328125 1.03125 -0.328125 3.8125l0 7.515625l-4.390625 0l0 -16.59375l4.078125 0l0 2.4375q2.171875 -2.8125 5.46875 -2.8125q1.453125 0 2.65625 0.53125q1.203125 0.515625 1.8125 1.328125q0.625 0.8125 0.859375 1.84375q0.25 1.03125 0.25 2.953125l0 10.3125zm14.0625 -5.28125l4.375 0.734375q-0.84375 2.40625 -2.671875 3.671875q-1.8125 1.25 -4.546875 1.25q-4.328125 0 -6.40625 -2.828125q-1.640625 -2.265625 -1.640625 -5.71875q0 -4.125 2.15625 -6.453125q2.15625 -2.34375 5.453125 -2.34375q3.703125 0 5.84375 2.453125q2.140625 2.4375 2.046875 7.484375l-11.0 0q0.046875 1.953125 1.0625 3.046875q1.015625 1.078125 2.53125 1.078125q1.03125 0 1.734375 -0.5625q0.703125 -0.5625 1.0625 -1.8125zm0.25 -4.4375q-0.046875 -1.90625 -0.984375 -2.890625q-0.9375 -1.0 -2.28125 -1.0q-1.4375 0 -2.375 1.046875q-0.9375 1.046875 -0.921875 2.84375l6.5625 0zm6.390625 4.984375l4.40625 -0.671875q0.28125 1.28125 1.140625 1.953125q0.859375 0.65625 2.40625 0.65625q1.703125 0 2.5625 -0.625q0.578125 -0.4375 0.578125 -1.171875q0 -0.5 -0.3125 -0.828125q-0.328125 -0.3125 -1.46875 -0.578125q-5.3125 -1.171875 -6.734375 -2.140625q-1.96875 -1.34375 -1.96875 -3.734375q0 -2.15625 1.703125 -3.625q1.703125 -1.46875 5.28125 -1.46875q3.40625 0 5.0625 1.109375q1.65625 1.109375 2.28125 3.28125l-4.140625 0.765625q-0.265625 -0.96875 -1.015625 -1.484375q-0.734375 -0.515625 -2.109375 -0.515625q-1.734375 0 -2.484375 0.484375q-0.5 0.34375 -0.5 0.890625q0 0.46875 0.4375 0.796875q0.59375 0.4375 4.09375 1.234375q3.515625 0.796875 4.90625 1.953125q1.375 1.171875 1.375 3.265625q0 2.28125 -1.90625 3.921875q-1.90625 1.640625 -5.640625 1.640625q-3.390625 0 -5.375 -1.375q-1.96875 -1.375 -2.578125 -3.734375zm17.796875 0l4.40625 -0.671875q0.28125 1.28125 1.140625 1.953125q0.859375 0.65625 2.40625 0.65625q1.703125 0 2.5625 -0.625q0.578125 -0.4375 0.578125 -1.171875q0 -0.5 -0.3125 -0.828125q-0.328125 -0.3125 -1.46875 -0.578125q-5.3125 -1.171875 -6.734375 -2.140625q-1.96875 -1.34375 -1.96875 -3.734375q0 -2.15625 1.703125 -3.625q1.703125 -1.46875 5.28125 -1.46875q3.40625 0 5.0625 1.109375q1.65625 1.109375 2.28125 3.28125l-4.140625 0.765625q-0.265625 -0.96875 -1.015625 -1.484375q-0.734375 -0.515625 -2.109375 -0.515625q-1.734375 0 -2.484375 0.484375q-0.5 0.34375 -0.5 0.890625q0 0.46875 0.4375 0.796875q0.59375 0.4375 4.09375 1.234375q3.515625 0.796875 4.90625 1.953125q1.375 1.171875 1.375 3.265625q0 2.28125 -1.90625 3.921875q-1.90625 1.640625 -5.640625 1.640625q-3.390625 0 -5.375 -1.375q-1.96875 -1.375 -2.578125 -3.734375z" fill-rule="nonzero"></path><path fill="#000000" fill-opacity="0.0" d="m0 648.0l227.43307 0l0 45.51184l-227.43307 0z" fill-rule="nonzero"></path><path fill="#ffffff" d="m51.575912 679.2981l4.484375 1.421875q-1.03125 3.75 -3.4375 5.578125q-2.390625 1.8125 -6.078125 1.8125q-4.5625 0 -7.5 -3.109375q-2.9375 -3.125 -2.9375 -8.53125q0 -5.71875 2.953125 -8.875q2.953125 -3.171875 7.765625 -3.171875q4.203125 0 6.828125 2.484375q1.5625 1.46875 2.34375 4.21875l-4.578125 1.09375q-0.40625 -1.78125 -1.703125 -2.8125q-1.28125 -1.03125 -3.125 -1.03125q-2.546875 0 -4.140625 1.828125q-1.578125 1.828125 -1.578125 5.921875q0 4.34375 1.5625 6.1875q1.5625 1.84375 4.0625 1.84375q1.84375 0 3.171875 -1.171875q1.328125 -1.171875 1.90625 -3.6875zm7.40625 -0.109375q0 -2.1875 1.078125 -4.234375q1.078125 -2.046875 3.046875 -3.125q1.984375 -1.078125 4.421875 -1.078125q3.765625 0 6.171875 2.453125q2.40625 2.4375 2.40625 6.171875q0 3.765625 -2.4375 6.25q-2.421875 2.46875 -6.109375 2.46875q-2.28125 0 -4.359375 -1.03125q-2.0625 -1.03125 -3.140625 -3.015625q-1.078125 -2.0 -1.078125 -4.859375zm4.5 0.234375q0 2.46875 1.171875 3.78125q1.171875 1.3125 2.890625 1.3125q1.71875 0 2.875 -1.3125q1.171875 -1.3125 1.171875 -3.8125q0 -2.4375 -1.171875 -3.75q-1.15625 -1.3125 -2.875 -1.3125q-1.71875 0 -2.890625 1.3125q-1.171875 1.3125 -1.171875 3.78125zm31.15625 8.296875l-4.390625 0l0 -8.46875q0 -2.6875 -0.28125 -3.46875q-0.28125 -0.796875 -0.921875 -1.234375q-0.625 -0.4375 -1.515625 -0.4375q-1.140625 0 -2.046875 0.625q-0.90625 0.625 -1.25 1.65625q-0.328125 1.03125 -0.328125 3.8125l0 7.515625l-4.390625 0l0 -16.59375l4.078125 0l0 2.4375q2.171875 -2.8125 5.46875 -2.8125q1.453125 0 2.65625 0.53125q1.203125 0.515625 1.8125 1.328125q0.625 0.8125 0.859375 1.84375q0.25 1.03125 0.25 2.953125l0 10.3125zm2.90625 -4.734375l4.40625 -0.671875q0.28125 1.28125 1.140625 1.953125q0.859375 0.65625 2.40625 0.65625q1.703125 0 2.5625 -0.625q0.578125 -0.4375 0.578125 -1.171875q0 -0.5 -0.3125 -0.828125q-0.328125 -0.3125 -1.46875 -0.578125q-5.3125 -1.171875 -6.734375 -2.140625q-1.96875 -1.34375 -1.96875 -3.734375q0 -2.15625 1.703125 -3.625q1.703125 -1.46875 5.28125 -1.46875q3.40625 0 5.0625 1.109375q1.65625 1.109375 2.28125 3.28125l-4.140625 0.765625q-0.265625 -0.96875 -1.015625 -1.484375q-0.734375 -0.515625 -2.109375 -0.515625q-1.734375 0 -2.484375 0.484375q-0.5 0.34375 -0.5 0.890625q0 0.46875 0.4375 0.796875q0.59375 0.4375 4.09375 1.234375q3.515625 0.796875 4.90625 1.953125q1.375 1.171875 1.375 3.265625q0 2.28125 -1.90625 3.921875q-1.90625 1.640625 -5.640625 1.640625q-3.390625 0 -5.375 -1.375q-1.96875 -1.375 -2.578125 -3.734375zm30.265625 4.734375l0 -2.484375q-0.90625 1.328125 -2.390625 2.09375q-1.46875 0.765625 -3.109375 0.765625q-1.671875 0 -3.0 -0.734375q-1.328125 -0.734375 -1.921875 -2.0625q-0.59375 -1.328125 -0.59375 -3.671875l0 -10.5l4.390625 0l0 7.625q0 3.5 0.234375 4.296875q0.25 0.78125 0.890625 1.25q0.640625 0.453125 1.625 0.453125q1.125 0 2.015625 -0.609375q0.890625 -0.625 1.21875 -1.53125q0.328125 -0.921875 0.328125 -4.484375l0 -7.0l4.390625 0l0 16.59375l-4.078125 0zm8.296875 -16.59375l4.046875 0l0 2.265625q2.171875 -2.640625 5.171875 -2.640625q1.59375 0 2.765625 0.65625q1.171875 0.65625 1.921875 1.984375q1.09375 -1.328125 2.359375 -1.984375q1.265625 -0.65625 2.703125 -0.65625q1.828125 0 3.09375 0.75q1.265625 0.734375 1.890625 2.171875q0.453125 1.0625 0.453125 3.4375l0 10.609375l-4.390625 0l0 -9.484375q0 -2.46875 -0.453125 -3.1875q-0.609375 -0.9375 -1.875 -0.9375q-0.921875 0 -1.734375 0.5625q-0.8125 0.5625 -1.171875 1.65625q-0.359375 1.078125 -0.359375 3.421875l0 7.96875l-4.390625 0l0 -9.09375q0 -2.421875 -0.234375 -3.125q-0.234375 -0.703125 -0.734375 -1.046875q-0.484375 -0.34375 -1.328125 -0.34375q-1.015625 0 -1.828125 0.546875q-0.8125 0.546875 -1.171875 1.578125q-0.34375 1.03125 -0.34375 3.421875l0 8.0625l-4.390625 0l0 -16.59375zm38.390625 11.3125l4.375 0.734375q-0.84375 2.40625 -2.671875 3.671875q-1.8125 1.25 -4.546875 1.25q-4.328125 0 -6.40625 -2.828125q-1.640625 -2.265625 -1.640625 -5.71875q0 -4.125 2.15625 -6.453125q2.15625 -2.34375 5.453125 -2.34375q3.703125 0 5.84375 2.453125q2.140625 2.4375 2.046875 7.484375l-11.0 0q0.046875 1.953125 1.0625 3.046875q1.015625 1.078125 2.53125 1.078125q1.03125 0 1.734375 -0.5625q0.703125 -0.5625 1.0625 -1.8125zm0.25 -4.4375q-0.046875 -1.90625 -0.984375 -2.890625q-0.9375 -1.0 -2.28125 -1.0q-1.4375 0 -2.375 1.046875q-0.9375 1.046875 -0.921875 2.84375l6.5625 0zm12.140625 9.71875l-4.390625 0l0 -16.59375l4.078125 0l0 2.359375q1.046875 -1.671875 1.875 -2.203125q0.84375 -0.53125 1.90625 -0.53125q1.5 0 2.890625 0.828125l-1.359375 3.828125q-1.109375 -0.71875 -2.0625 -0.71875q-0.921875 0 -1.5625 0.515625q-0.640625 0.5 -1.015625 1.828125q-0.359375 1.328125 -0.359375 5.5625l0 5.125z" fill-rule="nonzero"></path></g></svg>

