<?xml version="1.0" standalone="yes"?>

<svg version="1.1" viewBox="0.0 0.0 538.0 269.0" fill="none" stroke="none" stroke-linecap="square" stroke-miterlimit="10" xmlns="http://www.w3.org/2000/svg" xmlns:xlink="http://www.w3.org/1999/xlink"><clipPath id="p.0"><path d="m0 0l538.0 0l0 269.0l-538.0 0l0 -269.0z" clip-rule="nonzero"></path></clipPath><g clip-path="url(#p.0)"><path fill="#000000" fill-opacity="0.0" d="m0 0l538.4803 0l0 269.61942l-538.4803 0z" fill-rule="nonzero"></path><path fill="#6aa84f" d="m36.844868 134.405l0 0c0 -52.07837 42.23872 -94.296234 94.34282 -94.296234l0 0c25.021286 0 49.017746 9.93475 66.710464 27.618725c17.692703 17.683975 27.63237 41.668587 27.63237 66.677505l0 0c0 52.07837 -42.238724 94.29622 -94.342834 94.29622l0 0c-52.104095 0 -94.34282 -42.21785 -94.34282 -94.29622z" fill-rule="nonzero"></path><path fill="#cc0000" d="m78.93962 139.08395l34.832344 0l0 100.71875l-34.832344 0z" fill-rule="nonzero"></path><path fill="#f1c232" d="m113.58003 71.81638l34.832336 0l0 168.0151l-34.832336 0z" fill-rule="nonzero"></path><path fill="#3d85c6" d="m148.60368 103.60106l34.832336 0l0 136.2187l-34.832336 0z" fill-rule="nonzero"></path><path fill="#000000" fill-opacity="0.0" d="m36.652348 134.405l0 0c0 -52.07837 42.23872 -94.296234 94.342834 -94.296234l0 0c25.02127 0 49.01773 9.93475 66.71045 27.618725c17.692703 17.683975 27.63237 41.668587 27.63237 66.677505l0 0c0 52.07837 -42.238724 94.29622 -94.34282 94.29622l0 0c-52.10411 0 -94.342834 -42.21785 -94.342834 -94.29622z" fill-rule="nonzero"></path><path stroke="#ffffff" stroke-width="24.0" stroke-linejoin="round" stroke-linecap="butt" d="m36.652348 134.405l0 0c0 -52.07837 42.23872 -94.296234 94.342834 -94.296234l0 0c25.02127 0 49.01773 9.93475 66.71045 27.618725c17.692703 17.683975 27.63237 41.668587 27.63237 66.677505l0 0c0 52.07837 -42.238724 94.29622 -94.34282 94.29622l0 0c-52.10411 0 -94.342834 -42.21785 -94.342834 -94.29622z" fill-rule="nonzero"></path><path fill="#000000" fill-opacity="0.0" d="m21.265823 135.32185l0 0c0 -60.89363 49.46293 -110.25767 110.47853 -110.25767l0 0c29.300735 0 57.401382 11.6164 78.12013 32.293724c20.718735 20.677322 32.358414 48.721786 32.358414 77.96394l0 0c0 60.893616 -49.462936 110.25766 -110.478546 110.25766l0 0c-61.015602 0 -110.47853 -49.364044 -110.47853 -110.25766z" fill-rule="nonzero"></path><path stroke="#ffffff" stroke-width="24.0" stroke-linejoin="round" stroke-linecap="butt" d="m21.265823 135.32185l0 0c0 -60.89363 49.46293 -110.25767 110.47853 -110.25767l0 0c29.300735 0 57.401382 11.6164 78.12013 32.293724c20.718735 20.677322 32.358414 48.721786 32.358414 77.96394l0 0c0 60.893616 -49.462936 110.25766 -110.478546 110.25766l0 0c-61.015602 0 -110.47853 -49.364044 -110.47853 -110.25766z" fill-rule="nonzero"></path><path fill="#000000" fill-opacity="0.0" d="m32.103546 135.32204l0 0c0 -54.587746 44.27529 -98.83986 98.89163 -98.83986l0 0c26.227692 0 51.381165 10.413456 69.92694 28.949524c18.545776 18.536072 28.964691 43.676376 28.964691 69.890335l0 0c0 54.587753 -44.275284 98.83986 -98.89163 98.83986l0 0c-54.61634 0 -98.89163 -44.252106 -98.89163 -98.83986z" fill-rule="nonzero"></path><path stroke="#ffffff" stroke-width="24.0" stroke-linejoin="round" stroke-linecap="butt" d="m32.103546 135.32204l0 0c0 -54.587746 44.27529 -98.83986 98.89163 -98.83986l0 0c26.227692 0 51.381165 10.413456 69.92694 28.949524c18.545776 18.536072 28.964691 43.676376 28.964691 69.890335l0 0c0 54.587753 -44.275284 98.83986 -98.89163 98.83986l0 0c-54.61634 0 -98.89163 -44.252106 -98.89163 -98.83986z" fill-rule="nonzero"></path><path fill="#000000" fill-opacity="0.0" d="m206.3937 79.950134l358.51968 0l0 130.07874l-358.51968 0z" fill-rule="nonzero"></path><path fill="#6aa84f" d="m222.9562 216.20514l20.0625 2.4375q0.5 3.5 2.3125 4.8125q2.5 1.875 7.875 1.875q6.875 0 10.3125 -2.0625q2.3125 -1.375 3.5 -4.4375q0.8125 -2.1875 0.8125 -8.0625l0 -9.6875q-7.875 10.75 -19.875 10.75q-13.375 0 -21.1875 -11.3125q-6.125 -8.9375 -6.125 -22.25q0 -16.6875 8.03125 -25.5q8.03125 -8.8125 19.96875 -8.8125q12.3125 0 20.3125 10.8125l0 -9.3125l16.4375 0l0 59.5625q0 11.75 -1.9375 17.5625q-1.9375 5.8125 -5.4375 9.125q-3.5 3.3125 -9.34375 5.1875q-5.84375 1.875 -14.78125 1.875q-16.875 0 -23.9375 -5.78125q-7.0625 -5.78125 -7.0625 -14.65625q0 -0.875 0.0625 -2.125zm15.6875 -38.9375q0 10.5625 4.09375 15.46875q4.09375 4.90625 10.09375 4.90625q6.4375 0 10.875 -5.03125q4.4375 -5.03125 4.4375 -14.90625q0 -10.3125 -4.25 -15.3125q-4.25 -5.0 -10.75 -5.0q-6.3125 0 -10.40625 4.90625q-4.09375 4.90625 -4.09375 14.96875zm80.9375 34.5625l-17.5625 0l0 -66.375l16.3125 0l0 9.4375q4.1875 -6.6875 7.53125 -8.8125q3.34375 -2.125 7.59375 -2.125q6.0 0 11.5625 3.3125l-5.4375 15.3125q-4.4375 -2.875 -8.25 -2.875q-3.6875 0 -6.25 2.03125q-2.5625 2.03125 -4.03125 7.34375q-1.46875 5.3125 -1.46875 22.25l0 20.5zm46.125 -46.125l-15.9375 -2.875q2.6875 -9.625 9.25 -14.25q6.5625 -4.625 19.5 -4.625q11.75 0 17.5 2.78125q5.75 2.78125 8.09375 7.0625q2.34375 4.28125 2.34375 15.71875l-0.1875 20.5q0 8.75 0.84375 12.90625q0.84375 4.15625 3.15625 8.90625l-17.375 0q-0.6875 -1.75 -1.6875 -5.1875q-0.4375 -1.5625 -0.625 -2.0625q-4.5 4.375 -9.625 6.5625q-5.125 2.1875 -10.9375 2.1875q-10.25 0 -16.15625 -5.5625q-5.90625 -5.5625 -5.90625 -14.0625q0 -5.625 2.6875 -10.03125q2.6875 -4.40625 7.53125 -6.75q4.84375 -2.34375 13.96875 -4.09375q12.3125 -2.3125 17.0625 -4.3125l0 -1.75q0 -5.0625 -2.5 -7.21875q-2.5 -2.15625 -9.4375 -2.15625q-4.6875 0 -7.3125 1.84375q-2.625 1.84375 -4.25 6.46875zm23.5 14.25q-3.375 1.125 -10.6875 2.6875q-7.3125 1.5625 -9.5625 3.0625q-3.4375 2.4375 -3.4375 6.1875q0 3.6875 2.75 6.375q2.75 2.6875 7.0 2.6875q4.75 0 9.0625 -3.125q3.1875 -2.375 4.1875 -5.8125q0.6875 -2.25 0.6875 -8.5625l0 -3.5zm26.875 -34.5l9.75 0l0 -5.0q0 -8.375 1.78125 -12.5q1.78125 -4.125 6.5625 -6.71875q4.78125 -2.59375 12.09375 -2.59375q7.5 0 14.6875 2.25l-2.375 12.25q-4.1875 -1.0 -8.0625 -1.0q-3.8125 0 -5.46875 1.78125q-1.65625 1.78125 -1.65625 6.84375l0 4.6875l13.125 0l0 13.8125l-13.125 0l0 52.5625l-17.5625 0l0 -52.5625l-9.75 0l0 -13.8125zm42.0 0l18.6875 0l15.875 47.125l15.5 -47.125l18.18747 0l-23.43747 63.875l-4.1875 11.5625q-2.3125 5.8125 -4.40625 8.875q-2.09375 3.0625 -4.8125 4.96875q-2.71875 1.90625 -6.6875 2.96875q-3.96875 1.0625 -8.96875 1.0625q-5.0625 0 -9.9375 -1.0625l-1.5625 -13.75q4.125 0.8125 7.4375 0.8125q6.125 0 9.0625 -3.59375q2.9375 -3.59375 4.5 -9.15625l-25.25 -66.5625z" fill-rule="nonzero"></path></g></svg>

